<?xml version="1.0" encoding="utf-8"?>
<!DOCTYPE svg PUBLIC "-//W3C//DTD SVG 20010904//EN" "http://www.w3.org/TR/2001/REC-SVG-20010904/DTD/svg10.dtd">
<svg xmlns="http://www.w3.org/2000/svg" xml:space="preserve" xmlns:xlink="http://www.w3.org/1999/xlink" width="696" height="696" viewBox="0 0 696 696">
<desc></desc>
<rect width="696" height="696" fill="#ffffff" cx="0" cy="0" />
<defs>
<rect id="p" width="24" height="24" />
<circle id="circle" r="12" stroke-width="0" fill="b4b4b4" />
<rect id="hor" width="24" height="6" />
<rect id="ver" width="6" height="24" />
<polygon id="3d1" points="0,0 24,0 0,24" stroke-width="0" fill="b4b4b4" />
<polygon id="3d2" points="0,24 24,0 24,24" stroke-width="0" fill="#dadada" />
</defs>
<g fill="#b4b4b4">
<use x="48" y="48" xlink:href="#p" />
<use x="72" y="48" xlink:href="#p" />
<use x="96" y="48" xlink:href="#p" />
<use x="120" y="48" xlink:href="#p" />
<use x="144" y="48" xlink:href="#p" />
<use x="168" y="48" xlink:href="#p" />
<use x="192" y="48" xlink:href="#p" />
<use x="240" y="48" xlink:href="#p" />
<use x="264" y="48" xlink:href="#p" />
<use x="360" y="48" xlink:href="#p" />
<use x="432" y="48" xlink:href="#p" />
<use x="480" y="48" xlink:href="#p" />
<use x="504" y="48" xlink:href="#p" />
<use x="528" y="48" xlink:href="#p" />
<use x="552" y="48" xlink:href="#p" />
<use x="576" y="48" xlink:href="#p" />
<use x="600" y="48" xlink:href="#p" />
<use x="624" y="48" xlink:href="#p" />
<use x="48" y="72" xlink:href="#p" />
<use x="192" y="72" xlink:href="#p" />
<use x="288" y="72" xlink:href="#p" />
<use x="336" y="72" xlink:href="#p" />
<use x="360" y="72" xlink:href="#p" />
<use x="384" y="72" xlink:href="#p" />
<use x="408" y="72" xlink:href="#p" />
<use x="432" y="72" xlink:href="#p" />
<use x="480" y="72" xlink:href="#p" />
<use x="624" y="72" xlink:href="#p" />
<use x="48" y="96" xlink:href="#p" />
<use x="96" y="96" xlink:href="#p" />
<use x="120" y="96" xlink:href="#p" />
<use x="144" y="96" xlink:href="#p" />
<use x="192" y="96" xlink:href="#p" />
<use x="336" y="96" xlink:href="#p" />
<use x="384" y="96" xlink:href="#p" />
<use x="480" y="96" xlink:href="#p" />
<use x="528" y="96" xlink:href="#p" />
<use x="552" y="96" xlink:href="#p" />
<use x="576" y="96" xlink:href="#p" />
<use x="624" y="96" xlink:href="#p" />
<use x="48" y="120" xlink:href="#p" />
<use x="96" y="120" xlink:href="#p" />
<use x="120" y="120" xlink:href="#p" />
<use x="144" y="120" xlink:href="#p" />
<use x="192" y="120" xlink:href="#p" />
<use x="312" y="120" xlink:href="#p" />
<use x="360" y="120" xlink:href="#p" />
<use x="384" y="120" xlink:href="#p" />
<use x="408" y="120" xlink:href="#p" />
<use x="480" y="120" xlink:href="#p" />
<use x="528" y="120" xlink:href="#p" />
<use x="552" y="120" xlink:href="#p" />
<use x="576" y="120" xlink:href="#p" />
<use x="624" y="120" xlink:href="#p" />
<use x="48" y="144" xlink:href="#p" />
<use x="96" y="144" xlink:href="#p" />
<use x="120" y="144" xlink:href="#p" />
<use x="144" y="144" xlink:href="#p" />
<use x="192" y="144" xlink:href="#p" />
<use x="240" y="144" xlink:href="#p" />
<use x="264" y="144" xlink:href="#p" />
<use x="312" y="144" xlink:href="#p" />
<use x="360" y="144" xlink:href="#p" />
<use x="432" y="144" xlink:href="#p" />
<use x="480" y="144" xlink:href="#p" />
<use x="528" y="144" xlink:href="#p" />
<use x="552" y="144" xlink:href="#p" />
<use x="576" y="144" xlink:href="#p" />
<use x="624" y="144" xlink:href="#p" />
<use x="48" y="168" xlink:href="#p" />
<use x="192" y="168" xlink:href="#p" />
<use x="240" y="168" xlink:href="#p" />
<use x="264" y="168" xlink:href="#p" />
<use x="384" y="168" xlink:href="#p" />
<use x="408" y="168" xlink:href="#p" />
<use x="480" y="168" xlink:href="#p" />
<use x="624" y="168" xlink:href="#p" />
<use x="48" y="192" xlink:href="#p" />
<use x="72" y="192" xlink:href="#p" />
<use x="96" y="192" xlink:href="#p" />
<use x="120" y="192" xlink:href="#p" />
<use x="144" y="192" xlink:href="#p" />
<use x="168" y="192" xlink:href="#p" />
<use x="192" y="192" xlink:href="#p" />
<use x="240" y="192" xlink:href="#p" />
<use x="288" y="192" xlink:href="#p" />
<use x="336" y="192" xlink:href="#p" />
<use x="384" y="192" xlink:href="#p" />
<use x="432" y="192" xlink:href="#p" />
<use x="480" y="192" xlink:href="#p" />
<use x="504" y="192" xlink:href="#p" />
<use x="528" y="192" xlink:href="#p" />
<use x="552" y="192" xlink:href="#p" />
<use x="576" y="192" xlink:href="#p" />
<use x="600" y="192" xlink:href="#p" />
<use x="624" y="192" xlink:href="#p" />
<use x="264" y="216" xlink:href="#p" />
<use x="312" y="216" xlink:href="#p" />
<use x="336" y="216" xlink:href="#p" />
<use x="384" y="216" xlink:href="#p" />
<use x="432" y="216" xlink:href="#p" />
<use x="72" y="240" xlink:href="#p" />
<use x="96" y="240" xlink:href="#p" />
<use x="120" y="240" xlink:href="#p" />
<use x="144" y="240" xlink:href="#p" />
<use x="168" y="240" xlink:href="#p" />
<use x="192" y="240" xlink:href="#p" />
<use x="216" y="240" xlink:href="#p" />
<use x="264" y="240" xlink:href="#p" />
<use x="504" y="240" xlink:href="#p" />
<use x="528" y="240" xlink:href="#p" />
<use x="624" y="240" xlink:href="#p" />
<use x="72" y="264" xlink:href="#p" />
<use x="120" y="264" xlink:href="#p" />
<use x="144" y="264" xlink:href="#p" />
<use x="216" y="264" xlink:href="#p" />
<use x="288" y="264" xlink:href="#p" />
<use x="312" y="264" xlink:href="#p" />
<use x="336" y="264" xlink:href="#p" />
<use x="360" y="264" xlink:href="#p" />
<use x="456" y="264" xlink:href="#p" />
<use x="504" y="264" xlink:href="#p" />
<use x="600" y="264" xlink:href="#p" />
<use x="96" y="288" xlink:href="#p" />
<use x="144" y="288" xlink:href="#p" />
<use x="168" y="288" xlink:href="#p" />
<use x="192" y="288" xlink:href="#p" />
<use x="216" y="288" xlink:href="#p" />
<use x="288" y="288" xlink:href="#p" />
<use x="312" y="288" xlink:href="#p" />
<use x="336" y="288" xlink:href="#p" />
<use x="360" y="288" xlink:href="#p" />
<use x="384" y="288" xlink:href="#p" />
<use x="408" y="288" xlink:href="#p" />
<use x="480" y="288" xlink:href="#p" />
<use x="528" y="288" xlink:href="#p" />
<use x="552" y="288" xlink:href="#p" />
<use x="600" y="288" xlink:href="#p" />
<use x="624" y="288" xlink:href="#p" />
<use x="72" y="312" xlink:href="#p" />
<use x="96" y="312" xlink:href="#p" />
<use x="120" y="312" xlink:href="#p" />
<use x="216" y="312" xlink:href="#p" />
<use x="264" y="312" xlink:href="#p" />
<use x="288" y="312" xlink:href="#p" />
<use x="312" y="312" xlink:href="#p" />
<use x="336" y="312" xlink:href="#p" />
<use x="360" y="312" xlink:href="#p" />
<use x="504" y="312" xlink:href="#p" />
<use x="624" y="312" xlink:href="#p" />
<use x="96" y="336" xlink:href="#p" />
<use x="144" y="336" xlink:href="#p" />
<use x="168" y="336" xlink:href="#p" />
<use x="192" y="336" xlink:href="#p" />
<use x="216" y="336" xlink:href="#p" />
<use x="264" y="336" xlink:href="#p" />
<use x="384" y="336" xlink:href="#p" />
<use x="408" y="336" xlink:href="#p" />
<use x="432" y="336" xlink:href="#p" />
<use x="456" y="336" xlink:href="#p" />
<use x="480" y="336" xlink:href="#p" />
<use x="528" y="336" xlink:href="#p" />
<use x="576" y="336" xlink:href="#p" />
<use x="600" y="336" xlink:href="#p" />
<use x="624" y="336" xlink:href="#p" />
<use x="48" y="360" xlink:href="#p" />
<use x="72" y="360" xlink:href="#p" />
<use x="120" y="360" xlink:href="#p" />
<use x="216" y="360" xlink:href="#p" />
<use x="432" y="360" xlink:href="#p" />
<use x="504" y="360" xlink:href="#p" />
<use x="552" y="360" xlink:href="#p" />
<use x="600" y="360" xlink:href="#p" />
<use x="48" y="384" xlink:href="#p" />
<use x="96" y="384" xlink:href="#p" />
<use x="192" y="384" xlink:href="#p" />
<use x="216" y="384" xlink:href="#p" />
<use x="240" y="384" xlink:href="#p" />
<use x="264" y="384" xlink:href="#p" />
<use x="312" y="384" xlink:href="#p" />
<use x="336" y="384" xlink:href="#p" />
<use x="360" y="384" xlink:href="#p" />
<use x="384" y="384" xlink:href="#p" />
<use x="408" y="384" xlink:href="#p" />
<use x="432" y="384" xlink:href="#p" />
<use x="456" y="384" xlink:href="#p" />
<use x="480" y="384" xlink:href="#p" />
<use x="504" y="384" xlink:href="#p" />
<use x="528" y="384" xlink:href="#p" />
<use x="552" y="384" xlink:href="#p" />
<use x="600" y="384" xlink:href="#p" />
<use x="624" y="384" xlink:href="#p" />
<use x="48" y="408" xlink:href="#p" />
<use x="96" y="408" xlink:href="#p" />
<use x="120" y="408" xlink:href="#p" />
<use x="168" y="408" xlink:href="#p" />
<use x="216" y="408" xlink:href="#p" />
<use x="288" y="408" xlink:href="#p" />
<use x="360" y="408" xlink:href="#p" />
<use x="384" y="408" xlink:href="#p" />
<use x="408" y="408" xlink:href="#p" />
<use x="456" y="408" xlink:href="#p" />
<use x="480" y="408" xlink:href="#p" />
<use x="504" y="408" xlink:href="#p" />
<use x="528" y="408" xlink:href="#p" />
<use x="624" y="408" xlink:href="#p" />
<use x="48" y="432" xlink:href="#p" />
<use x="144" y="432" xlink:href="#p" />
<use x="168" y="432" xlink:href="#p" />
<use x="192" y="432" xlink:href="#p" />
<use x="216" y="432" xlink:href="#p" />
<use x="240" y="432" xlink:href="#p" />
<use x="336" y="432" xlink:href="#p" />
<use x="360" y="432" xlink:href="#p" />
<use x="408" y="432" xlink:href="#p" />
<use x="432" y="432" xlink:href="#p" />
<use x="456" y="432" xlink:href="#p" />
<use x="480" y="432" xlink:href="#p" />
<use x="504" y="432" xlink:href="#p" />
<use x="528" y="432" xlink:href="#p" />
<use x="576" y="432" xlink:href="#p" />
<use x="240" y="456" xlink:href="#p" />
<use x="264" y="456" xlink:href="#p" />
<use x="288" y="456" xlink:href="#p" />
<use x="360" y="456" xlink:href="#p" />
<use x="432" y="456" xlink:href="#p" />
<use x="528" y="456" xlink:href="#p" />
<use x="552" y="456" xlink:href="#p" />
<use x="48" y="480" xlink:href="#p" />
<use x="72" y="480" xlink:href="#p" />
<use x="96" y="480" xlink:href="#p" />
<use x="120" y="480" xlink:href="#p" />
<use x="144" y="480" xlink:href="#p" />
<use x="168" y="480" xlink:href="#p" />
<use x="192" y="480" xlink:href="#p" />
<use x="240" y="480" xlink:href="#p" />
<use x="264" y="480" xlink:href="#p" />
<use x="288" y="480" xlink:href="#p" />
<use x="360" y="480" xlink:href="#p" />
<use x="384" y="480" xlink:href="#p" />
<use x="432" y="480" xlink:href="#p" />
<use x="480" y="480" xlink:href="#p" />
<use x="528" y="480" xlink:href="#p" />
<use x="576" y="480" xlink:href="#p" />
<use x="600" y="480" xlink:href="#p" />
<use x="624" y="480" xlink:href="#p" />
<use x="48" y="504" xlink:href="#p" />
<use x="192" y="504" xlink:href="#p" />
<use x="240" y="504" xlink:href="#p" />
<use x="264" y="504" xlink:href="#p" />
<use x="336" y="504" xlink:href="#p" />
<use x="360" y="504" xlink:href="#p" />
<use x="384" y="504" xlink:href="#p" />
<use x="432" y="504" xlink:href="#p" />
<use x="528" y="504" xlink:href="#p" />
<use x="552" y="504" xlink:href="#p" />
<use x="600" y="504" xlink:href="#p" />
<use x="48" y="528" xlink:href="#p" />
<use x="96" y="528" xlink:href="#p" />
<use x="120" y="528" xlink:href="#p" />
<use x="144" y="528" xlink:href="#p" />
<use x="192" y="528" xlink:href="#p" />
<use x="240" y="528" xlink:href="#p" />
<use x="360" y="528" xlink:href="#p" />
<use x="408" y="528" xlink:href="#p" />
<use x="432" y="528" xlink:href="#p" />
<use x="456" y="528" xlink:href="#p" />
<use x="480" y="528" xlink:href="#p" />
<use x="504" y="528" xlink:href="#p" />
<use x="528" y="528" xlink:href="#p" />
<use x="576" y="528" xlink:href="#p" />
<use x="624" y="528" xlink:href="#p" />
<use x="48" y="552" xlink:href="#p" />
<use x="96" y="552" xlink:href="#p" />
<use x="120" y="552" xlink:href="#p" />
<use x="144" y="552" xlink:href="#p" />
<use x="192" y="552" xlink:href="#p" />
<use x="240" y="552" xlink:href="#p" />
<use x="288" y="552" xlink:href="#p" />
<use x="336" y="552" xlink:href="#p" />
<use x="456" y="552" xlink:href="#p" />
<use x="480" y="552" xlink:href="#p" />
<use x="528" y="552" xlink:href="#p" />
<use x="552" y="552" xlink:href="#p" />
<use x="576" y="552" xlink:href="#p" />
<use x="600" y="552" xlink:href="#p" />
<use x="624" y="552" xlink:href="#p" />
<use x="48" y="576" xlink:href="#p" />
<use x="96" y="576" xlink:href="#p" />
<use x="120" y="576" xlink:href="#p" />
<use x="144" y="576" xlink:href="#p" />
<use x="192" y="576" xlink:href="#p" />
<use x="240" y="576" xlink:href="#p" />
<use x="264" y="576" xlink:href="#p" />
<use x="312" y="576" xlink:href="#p" />
<use x="336" y="576" xlink:href="#p" />
<use x="432" y="576" xlink:href="#p" />
<use x="552" y="576" xlink:href="#p" />
<use x="576" y="576" xlink:href="#p" />
<use x="624" y="576" xlink:href="#p" />
<use x="48" y="600" xlink:href="#p" />
<use x="192" y="600" xlink:href="#p" />
<use x="240" y="600" xlink:href="#p" />
<use x="264" y="600" xlink:href="#p" />
<use x="288" y="600" xlink:href="#p" />
<use x="336" y="600" xlink:href="#p" />
<use x="360" y="600" xlink:href="#p" />
<use x="384" y="600" xlink:href="#p" />
<use x="408" y="600" xlink:href="#p" />
<use x="432" y="600" xlink:href="#p" />
<use x="456" y="600" xlink:href="#p" />
<use x="480" y="600" xlink:href="#p" />
<use x="504" y="600" xlink:href="#p" />
<use x="528" y="600" xlink:href="#p" />
<use x="552" y="600" xlink:href="#p" />
<use x="624" y="600" xlink:href="#p" />
<use x="48" y="624" xlink:href="#p" />
<use x="72" y="624" xlink:href="#p" />
<use x="96" y="624" xlink:href="#p" />
<use x="120" y="624" xlink:href="#p" />
<use x="144" y="624" xlink:href="#p" />
<use x="168" y="624" xlink:href="#p" />
<use x="192" y="624" xlink:href="#p" />
<use x="288" y="624" xlink:href="#p" />
<use x="312" y="624" xlink:href="#p" />
<use x="408" y="624" xlink:href="#p" />
<use x="456" y="624" xlink:href="#p" />
<use x="480" y="624" xlink:href="#p" />
<use x="504" y="624" xlink:href="#p" />
<use x="528" y="624" xlink:href="#p" />
<use x="552" y="624" xlink:href="#p" />
<use x="576" y="624" xlink:href="#p" />
<use x="600" y="624" xlink:href="#p" />
<use x="624" y="624" xlink:href="#p" />
</g>
</svg>